<?xml version="1.0" encoding="us-ascii" standalone="no"?><svg xmlns="http://www.w3.org/2000/svg" xmlns:xlink="http://www.w3.org/1999/xlink" contentStyleType="text/css" height="1769px" preserveAspectRatio="none" style="width:917px;height:1769px;background:#FFFFFF;" version="1.1" viewBox="0 0 917 1769" width="917px" zoomAndPan="magnify"><defs/><g><!--cluster ???????--><g id="cluster_&#1042;&#1110;&#1076;&#1075;&#1091;&#1082;&#1080;"><rect fill="#FFFFFF" height="573" rx="2.5" ry="2.5" style="stroke:#000000;stroke-width:1.0;" width="289.81" x="572.6" y="16.64"/><text fill="#000000" font-family="Verdana" font-size="14" font-weight="bold" lengthAdjust="spacing" textLength="61" x="687.005" y="32.7152">&#1042;&#1110;&#1076;&#1075;&#1091;&#1082;&#1080;</text></g><!--cluster ???? ????????? ??? ?????????--><g id="cluster_&#1052;&#1110;&#1085;&#1110; &#1089;&#1086;&#1094;&#1084;&#1077;&#1088;&#1077;&#1078;&#1072; &#1076;&#1083;&#1103; &#1089;&#1090;&#1091;&#1076;&#1077;&#1085;&#1090;&#1110;&#1074;"><rect fill="#FFFFFF" height="784" rx="2.5" ry="2.5" style="stroke:#000000;stroke-width:1.0;" width="339.26" x="156" y="389.64"/><text fill="#000000" font-family="Verdana" font-size="14" font-weight="bold" lengthAdjust="spacing" textLength="243" x="204.13" y="405.7152">&#1052;&#1110;&#1085;&#1110; &#1089;&#1086;&#1094;&#1084;&#1077;&#1088;&#1077;&#1078;&#1072; &#1076;&#1083;&#1103; &#1089;&#1090;&#1091;&#1076;&#1077;&#1085;&#1090;&#1110;&#1074;</text></g><!--cluster ?????? ??? ????????????--><g id="cluster_&#1057;&#1077;&#1088;&#1074;&#1110;&#1089; &#1076;&#1083;&#1103; &#1072;&#1073;&#1110;&#1090;&#1091;&#1088;&#1110;&#1108;&#1085;&#1090;&#1110;&#1074;"><rect fill="#FFFFFF" height="409" rx="2.5" ry="2.5" style="stroke:#000000;stroke-width:1.0;" width="388.48" x="523.26" y="1354.64"/><text fill="#000000" font-family="Verdana" font-size="14" font-weight="bold" lengthAdjust="spacing" textLength="185" x="625" y="1370.7152">&#1057;&#1077;&#1088;&#1074;&#1110;&#1089; &#1076;&#1083;&#1103; &#1072;&#1073;&#1110;&#1090;&#1091;&#1088;&#1110;&#1108;&#1085;&#1090;&#1110;&#1074;</text></g><g id="elem_readReviews"><ellipse cx="717.4963" cy="553.6353" fill="#FFFFFF" rx="86.6263" ry="19.7253" style="stroke:#000000;stroke-width:1.0;"/><text fill="#000000" font-family="Verdana" font-size="14" lengthAdjust="spacing" textLength="132" x="651.4963" y="557.2031">&#1063;&#1080;&#1090;&#1072;&#1090;&#1080; &#1091;&#1089;&#1110; &#1074;&#1110;&#1076;&#1075;&#1091;&#1082;&#1080;</text></g><g id="elem_createReview"><ellipse cx="717.4984" cy="71.6377" fill="#FFFFFF" rx="85.3384" ry="19.4677" style="stroke:#000000;stroke-width:1.0;"/><text fill="#000000" font-family="Verdana" font-size="14" lengthAdjust="spacing" textLength="129" x="652.9984" y="75.2056">&#1047;&#1072;&#1083;&#1080;&#1096;&#1072;&#1090;&#1080; &#1074;&#1110;&#1076;&#1075;&#1091;&#1082;&#1080;</text></g><g id="elem_editReview"><ellipse cx="717.502" cy="148.6384" fill="#FFFFFF" rx="99.842" ry="22.3684" style="stroke:#000000;stroke-width:1.0;"/><text fill="#000000" font-family="Verdana" font-size="14" lengthAdjust="spacing" textLength="162" x="636.502" y="152.2063">&#1056;&#1077;&#1076;&#1072;&#1075;&#1091;&#1074;&#1072;&#1090;&#1080; &#1089;&#1074;&#1110;&#1081; &#1074;&#1110;&#1076;&#1075;&#1091;&#1082;</text></g><g id="elem_deleteReview"><ellipse cx="717.4962" cy="227.6352" fill="#FFFFFF" rx="95.3762" ry="21.4752" style="stroke:#000000;stroke-width:1.0;"/><text fill="#000000" font-family="Verdana" font-size="14" lengthAdjust="spacing" textLength="152" x="641.4962" y="231.2031">&#1042;&#1080;&#1076;&#1072;&#1083;&#1080;&#1090;&#1080; &#1089;&#1074;&#1110;&#1081; &#1074;&#1110;&#1076;&#1075;&#1091;&#1082;</text></g><g id="elem_rateReview"><ellipse cx="717.5032" cy="394.6406" fill="#FFFFFF" rx="128.9032" ry="28.1806" style="stroke:#000000;stroke-width:1.0;"/><text fill="#000000" font-family="Verdana" font-size="14" lengthAdjust="spacing" textLength="225" x="605.0032" y="398.2085">&#1051;&#1072;&#1081;&#1082;&#1085;&#1091;&#1090;&#1080; / &#1076;&#1080;&#1079;&#1083;&#1072;&#1081;&#1082;&#1085;&#1091;&#1090;&#1080; &#1074;&#1110;&#1076;&#1075;&#1091;&#1082;</text></g><g id="elem_reportReview"><ellipse cx="717.5017" cy="307.6423" fill="#FFFFFF" rx="104.8117" ry="23.3623" style="stroke:#000000;stroke-width:1.0;"/><text fill="#000000" font-family="Verdana" font-size="14" lengthAdjust="spacing" textLength="173" x="631.0017" y="311.2102">&#1055;&#1086;&#1089;&#1082;&#1072;&#1088;&#1078;&#1080;&#1090;&#1080;&#1089;&#1100; &#1085;&#1072; &#1074;&#1110;&#1076;&#1075;&#1091;&#1082;</text></g><g id="elem_moderateReviews"><ellipse cx="717.5046" cy="478.6389" fill="#FFFFFF" rx="91.8446" ry="20.7689" style="stroke:#000000;stroke-width:1.0;"/><text fill="#000000" font-family="Verdana" font-size="14" lengthAdjust="spacing" textLength="144" x="645.5046" y="482.2068">&#1052;&#1086;&#1076;&#1077;&#1088;&#1091;&#1074;&#1072;&#1090;&#1080; &#1074;&#1110;&#1076;&#1075;&#1091;&#1082;&#1080;</text></g><g id="elem_createPost"><ellipse cx="325.6326" cy="521.6365" fill="#FFFFFF" rx="83.6326" ry="19.1265" style="stroke:#000000;stroke-width:1.0;"/><text fill="#000000" font-family="Verdana" font-size="14" lengthAdjust="spacing" textLength="125" x="263.1326" y="525.2044">&#1054;&#1091;&#1073;&#1083;&#1110;&#1082;&#1091;&#1074;&#1072;&#1090;&#1080; &#1087;&#1086;&#1089;&#1090;</text></g><g id="elem_editPost"><ellipse cx="325.6273" cy="446.6395" fill="#FFFFFF" rx="94.0473" ry="21.2095" style="stroke:#000000;stroke-width:1.0;"/><text fill="#000000" font-family="Verdana" font-size="14" lengthAdjust="spacing" textLength="149" x="251.1273" y="450.2073">&#1056;&#1077;&#1075;&#1072;&#1076;&#1091;&#1074;&#1072;&#1090;&#1080; &#1089;&#1074;&#1110;&#1081; &#1087;&#1086;&#1089;&#1090;</text></g><g id="elem_deletePost"><ellipse cx="325.628" cy="1036.6416" fill="#FFFFFF" rx="89.658" ry="20.3316" style="stroke:#000000;stroke-width:1.0;"/><text fill="#000000" font-family="Verdana" font-size="14" lengthAdjust="spacing" textLength="139" x="256.128" y="1040.2095">&#1042;&#1080;&#1076;&#1072;&#1083;&#1080;&#1090;&#1080; &#1089;&#1074;&#1110;&#1081; &#1087;&#1086;&#1089;&#1090;</text></g><g id="elem_ratePost"><ellipse cx="325.6255" cy="954.6411" fill="#FFFFFF" rx="122.8055" ry="26.9611" style="stroke:#000000;stroke-width:1.0;"/><text fill="#000000" font-family="Verdana" font-size="14" lengthAdjust="spacing" textLength="212" x="219.6255" y="958.209">&#1051;&#1072;&#1081;&#1082;&#1085;&#1091;&#1090;&#1080; / &#1076;&#1080;&#1079;&#1083;&#1072;&#1081;&#1082;&#1085;&#1091;&#1090;&#1080; &#1087;&#1086;&#1089;&#1090;</text></g><g id="elem_createComment"><ellipse cx="325.626" cy="863.6432" fill="#FFFFFF" rx="134.566" ry="29.3132" style="stroke:#000000;stroke-width:1.0;"/><text fill="#000000" font-family="Verdana" font-size="14" lengthAdjust="spacing" textLength="237" x="207.126" y="867.2111">&#1047;&#1072;&#1083;&#1080;&#1096;&#1072;&#1090;&#1080; &#1082;&#1086;&#1084;&#1077;&#1085;&#1090;&#1072;&#1088;&#1110; &#1087;&#1110;&#1076; &#1087;&#1086;&#1089;&#1090;&#1072;&#1084;&#1080;</text></g><g id="elem_rateComment"><ellipse cx="325.6322" cy="768.6364" fill="#FFFFFF" rx="139.7822" ry="30.3564" style="stroke:#000000;stroke-width:1.0;"/><text fill="#000000" font-family="Verdana" font-size="14" lengthAdjust="spacing" textLength="248" x="201.6322" y="772.2043">&#1051;&#1072;&#1081;&#1082;&#1085;&#1091;&#1090;&#1080; / &#1076;&#1080;&#1079;&#1083;&#1072;&#1081;&#1082;&#1085;&#1091;&#1090;&#1080; &#1082;&#1086;&#1084;&#1077;&#1085;&#1090;&#1072;&#1088;</text></g><g id="elem_reportPost"><ellipse cx="325.6346" cy="680.6389" fill="#FFFFFF" rx="98.9446" ry="22.1889" style="stroke:#000000;stroke-width:1.0;"/><text fill="#000000" font-family="Verdana" font-size="14" lengthAdjust="spacing" textLength="160" x="245.6346" y="684.2068">&#1055;&#1086;&#1089;&#1082;&#1072;&#1088;&#1078;&#1080;&#1090;&#1080;&#1089;&#1100; &#1085;&#1072; &#1087;&#1086;&#1089;&#1090;</text></g><g id="elem_createPoll"><ellipse cx="325.6307" cy="1124.6361" fill="#FFFFFF" rx="153.6307" ry="33.1261" style="stroke:#000000;stroke-width:1.0;"/><text fill="#000000" font-family="Verdana" font-size="14" lengthAdjust="spacing" textLength="277" x="187.1307" y="1128.204">&#1057;&#1090;&#1074;&#1086;&#1088;&#1102;&#1074;&#1072;&#1090;&#1080; &#1086;&#1087;&#1080;&#1090;&#1091;&#1074;&#1072;&#1085;&#1085;&#1103; &#1076;&#1083;&#1103; &#1089;&#1090;&#1091;&#1076;&#1077;&#1085;&#1090;&#1110;&#1074;</text></g><g id="elem_vote"><ellipse cx="325.6321" cy="599.6364" fill="#FFFFFF" rx="106.6321" ry="23.7264" style="stroke:#000000;stroke-width:1.0;"/><text fill="#000000" font-family="Verdana" font-size="14" lengthAdjust="spacing" textLength="177" x="237.1321" y="603.2043">&#1043;&#1086;&#1083;&#1086;&#1089;&#1091;&#1074;&#1072;&#1090;&#1080; &#1074; &#1086;&#1087;&#1080;&#1090;&#1091;&#1074;&#1072;&#1085;&#1085;&#1110;</text></g><g id="elem_readUniversities"><ellipse cx="717.4979" cy="1422.6396" fill="#FFFFFF" rx="149.7979" ry="32.3596" style="stroke:#000000;stroke-width:1.0;"/><text fill="#000000" font-family="Verdana" font-size="14" lengthAdjust="spacing" textLength="269" x="582.9979" y="1426.2074">&#1063;&#1080;&#1090;&#1072;&#1090;&#1080; &#1110;&#1085;&#1092;&#1086;&#1088;&#1084;&#1072;&#1094;&#1110;&#1102; &#1087;&#1088;&#1086; &#1091;&#1085;&#1110;&#1074;&#1077;&#1088;&#1089;&#1080;&#1090;&#1077;&#1090;&#1080;</text></g><g id="elem_compareEntities"><ellipse cx="717.5033" cy="1723.6367" fill="#FFFFFF" rx="109.8333" ry="24.3667" style="stroke:#000000;stroke-width:1.0;"/><text fill="#000000" font-family="Verdana" font-size="14" lengthAdjust="spacing" textLength="184" x="625.5033" y="1727.2045">&#1055;&#1086;&#1088;&#1110;&#1074;&#1085;&#1103;&#1085;&#1085;&#1103; &#1091;&#1085;&#1110;&#1074;&#1077;&#1088;&#1089;&#1080;&#1090;&#1077;&#1090;&#1110;&#1074;</text></g><g id="elem_getUniversityRecommendations"><ellipse cx="717.5048" cy="1632.637" fill="#FFFFFF" rx="147.8848" ry="31.977" style="stroke:#000000;stroke-width:1.0;"/><text fill="#000000" font-family="Verdana" font-size="14" lengthAdjust="spacing" textLength="265" x="585.0048" y="1636.2048">&#1055;&#1110;&#1076;&#1110;&#1073;&#1088;&#1072;&#1090;&#1080; &#1091;&#1085;&#1110;&#1074;&#1077;&#1088;&#1089;&#1080;&#1090;&#1077;&#1090; &#1079;&#1072; &#1082;&#1088;&#1080;&#1090;&#1077;&#1088;&#1110;&#1103;&#1084;&#1080;</text></g><g id="elem_moderateUniveristyInfo"><ellipse cx="717.5009" cy="1527.6382" fill="#FFFFFF" rx="178.2409" ry="38.0482" style="stroke:#000000;stroke-width:1.0;"/><text fill="#000000" font-family="Verdana" font-size="14" lengthAdjust="spacing" textLength="328" x="553.5009" y="1531.206">&#1040;&#1076;&#1084;&#1110;&#1085;&#1110;&#1089;&#1090;&#1088;&#1091;&#1074;&#1072;&#1090;&#1080; &#1110;&#1085;&#1092;&#1086;&#1088;&#1084;&#1072;&#1094;&#1110;&#1102; &#1087;&#1088;&#1086; &#1091;&#1085;&#1110;&#1074;&#1077;&#1088;&#1089;&#1080;&#1090;&#1077;&#1090;&#1080;</text></g><!--entity guest--><g id="elem_guest"><ellipse cx="325.63" cy="1414.63" fill="#FFFFFF" rx="8" ry="8" style="stroke:#000000;stroke-width:1.0;"/><path d="M325.63,1422.63 L325.63,1449.63 M312.63,1430.63 L338.63,1430.63 M325.63,1449.63 L312.63,1464.63 M325.63,1449.63 L338.63,1464.63 " fill="none" style="stroke:#000000;stroke-width:1.0;"/><text fill="#000000" font-family="Verdana" font-size="14" lengthAdjust="spacing" textLength="34" x="308.63" y="1480.7052">&#1043;&#1110;&#1089;&#1090;&#1100;</text></g><!--entity student--><g id="elem_student"><ellipse cx="61.5" cy="530.63" fill="#FFFFFF" rx="8" ry="8" style="stroke:#000000;stroke-width:1.0;"/><path d="M61.5,538.63 L61.5,565.63 M48.5,546.63 L74.5,546.63 M61.5,565.63 L48.5,580.63 M61.5,565.63 L74.5,580.63 " fill="none" style="stroke:#000000;stroke-width:1.0;"/><text fill="#000000" font-family="Verdana" font-size="14" lengthAdjust="spacing" textLength="58" x="32.5" y="596.7052">&#1057;&#1090;&#1091;&#1076;&#1077;&#1085;&#1090;</text></g><!--entity applicant--><g id="elem_applicant"><ellipse cx="61.5" cy="1425.63" fill="#FFFFFF" rx="8" ry="8" style="stroke:#000000;stroke-width:1.0;"/><path d="M61.5,1433.63 L61.5,1460.63 M48.5,1441.63 L74.5,1441.63 M61.5,1460.63 L48.5,1475.63 M61.5,1460.63 L74.5,1475.63 " fill="none" style="stroke:#000000;stroke-width:1.0;"/><text fill="#000000" font-family="Verdana" font-size="14" lengthAdjust="spacing" textLength="75" x="24" y="1491.7052">&#1040;&#1073;&#1110;&#1090;&#1091;&#1088;&#1110;&#1108;&#1085;&#1090;</text></g><!--entity admin--><g id="elem_admin"><ellipse cx="61.5" cy="1312.63" fill="#FFFFFF" rx="8" ry="8" style="stroke:#000000;stroke-width:1.0;"/><path d="M61.5,1320.63 L61.5,1347.63 M48.5,1328.63 L74.5,1328.63 M61.5,1347.63 L48.5,1362.63 M61.5,1347.63 L74.5,1362.63 " fill="none" style="stroke:#000000;stroke-width:1.0;"/><text fill="#000000" font-family="Verdana" font-size="14" lengthAdjust="spacing" textLength="101" x="11" y="1378.7052">&#1040;&#1076;&#1084;&#1110;&#1085;&#1110;&#1089;&#1090;&#1088;&#1072;&#1090;&#1086;&#1088;</text></g><!--link applicant to guest--><g id="link_applicant_guest"><path d="M99.22,1454.1 C156.99,1451.67 248.7958,1447.8248 290.2558,1446.0848 " fill="none" id="applicant-to-guest" style="stroke:#000000;stroke-width:1.0;"/><polygon fill="none" points="308.24,1445.33,290.0042,1440.09,290.5074,1452.0795,308.24,1445.33" style="stroke:#000000;stroke-width:1.0;"/></g><!--link student to guest--><g id="link_student_guest"><path d="M62.14,600.1 C62.45,699.66 70.98,967.84 148,1173.64 C187.27,1278.57 260.876,1370.8817 296.636,1412.5417 " fill="none" id="student-to-guest" style="stroke:#000000;stroke-width:1.0;"/><polygon fill="none" points="308.36,1426.2,301.1888,1408.6337,292.0833,1416.4497,308.36,1426.2" style="stroke:#000000;stroke-width:1.0;"/></g><!--link guest to readReviews--><g id="link_guest_readReviews"><path d="M343.04,1443.43 C377.95,1439.95 459.89,1426.81 503.26,1378.64 C617.1,1252.21 697.7054,692.9758 713.0654,579.4758 " fill="none" id="guest-to-readReviews" style="stroke:#000000;stroke-width:1.0;"/><polygon fill="#000000" points="713.87,573.53,708.6992,581.9123,713.1995,578.4848,716.6269,582.9851,713.87,573.53" style="stroke:#000000;stroke-width:1.0;"/></g><!--link student to createReview--><g id="link_student_createReview"><path d="M64.79,521.37 C71.15,427.1 92.36,191.99 148,140.64 C288.46,11 532.6668,36.0865 648.5268,57.1565 " fill="none" id="student-to-createReview" style="stroke:#000000;stroke-width:1.0;"/><polygon fill="#000000" points="654.43,58.23,646.2909,52.6842,649.5107,57.3354,644.8595,60.5551,654.43,58.23" style="stroke:#000000;stroke-width:1.0;"/></g><!--link student to editReview--><g id="link_student_editReview"><path d="M66.69,521.14 C76.22,439.4 102.29,255.94 148,215.64 C286.47,93.56 517.3828,112.3666 636.9328,132.4366 " fill="none" id="student-to-editReview" style="stroke:#000000;stroke-width:1.0;"/><polygon fill="#000000" points="642.85,133.43,634.6365,127.9951,637.919,132.6022,633.312,135.8847,642.85,133.43" style="stroke:#000000;stroke-width:1.0;"/></g><!--link student to deleteReview--><g id="link_student_deleteReview"><path d="M62.15,521.59 C63.92,460.85 77.04,344.71 148,286.64 C291.98,168.8 524.1126,190.88 641.1926,211.69 " fill="none" id="student-to-deleteReview" style="stroke:#000000;stroke-width:1.0;"/><polygon fill="#000000" points="647.1,212.74,638.9389,207.2267,642.1772,211.865,637.5389,215.1033,647.1,212.74" style="stroke:#000000;stroke-width:1.0;"/></g><!--link applicant to rateReview--><g id="link_applicant_rateReview"><path d="M99.21,1422.86 C113.76,1410.84 131.05,1397.73 148,1387.64 C295.43,1299.89 407.53,1379.01 503.26,1236.64 C527.94,1199.94 487.43,475.01 515.26,440.64 C533.64,417.94 554.8871,406.477 583.2571,399.427 " fill="none" id="applicant-to-rateReview" style="stroke:#000000;stroke-width:1.0;"/><polygon fill="#000000" points="589.08,397.98,579.381,396.2686,584.2276,399.1858,581.3103,404.0324,589.08,397.98" style="stroke:#000000;stroke-width:1.0;"/></g><!--link student to rateReview--><g id="link_student_rateReview"><path d="M72.78,521.29 C84.48,485.27 107.46,434 148,409.64 C299.07,318.88 509.9975,346.1229 627.4175,371.7029 " fill="none" id="student-to-rateReview" style="stroke:#000000;stroke-width:1.0;"/><polygon fill="#000000" points="633.28,372.98,625.3377,367.1559,628.3946,371.9157,623.6348,374.9726,633.28,372.98" style="stroke:#000000;stroke-width:1.0;"/></g><!--link admin to moderateReviews--><g id="link_admin_moderateReviews"><path d="M112.21,1340.56 C206.99,1333.6 412.23,1303.49 503.26,1173.64 C524.22,1143.75 491.71,544.53 515.26,516.64 C542.9,483.9 583.1155,473.8277 624.2855,472.0577 " fill="none" id="admin-to-moderateReviews" style="stroke:#000000;stroke-width:1.0;"/><polygon fill="#000000" points="630.28,471.8,621.1165,468.1903,625.2846,472.0148,621.4601,476.1829,630.28,471.8" style="stroke:#000000;stroke-width:1.0;"/></g><!--link student to reportReview--><g id="link_student_reportReview"><path d="M66.48,521.35 C73.68,472.96 93.58,392.31 148,352.64 C295.41,245.18 519.2216,268.0007 636.4016,289.8407 " fill="none" id="student-to-reportReview" style="stroke:#000000;stroke-width:1.0;"/><polygon fill="#000000" points="642.3,290.94,634.1853,285.3587,637.3846,290.0239,632.7195,293.2233,642.3,290.94" style="stroke:#000000;stroke-width:1.0;"/></g><!--link applicant to reportReview--><g id="link_applicant_reportReview"><path d="M99.38,1418.09 C104.04,1412.2 108.42,1405.96 112,1399.64 C138.16,1353.4 110.42,1323.2 148,1285.64 C265.09,1168.6 404.4,1306.43 503.26,1173.64 C530.63,1136.87 486.01,383.93 515.26,348.64 C539.16,319.82 571.3393,308.4256 608.0293,304.2056 " fill="none" id="applicant-to-reportReview" style="stroke:#000000;stroke-width:1.0;"/><polygon fill="#000000" points="613.99,303.52,604.5919,300.5746,609.0227,304.0913,605.506,308.5222,613.99,303.52" style="stroke:#000000;stroke-width:1.0;"/></g><!--link student to createPost--><g id="link_student_createPost"><path d="M90.8,556.43 C129.66,550.65 194.8653,540.9427 248.5153,532.9627 " fill="none" id="student-to-createPost" style="stroke:#000000;stroke-width:1.0;"/><polygon fill="#000000" points="254.45,532.08,244.9594,529.4476,249.5044,532.8156,246.1364,537.3606,254.45,532.08" style="stroke:#000000;stroke-width:1.0;"/></g><!--link student to editPost--><g id="link_student_editPost"><path d="M90.87,528.59 C106.29,513.08 126.57,495.51 148,484.64 C176.4,470.24 204.1391,462.3758 234.4091,456.8058 " fill="none" id="student-to-editPost" style="stroke:#000000;stroke-width:1.0;"/><polygon fill="#000000" points="240.31,455.72,230.7347,453.4148,235.3926,456.6249,232.1825,461.2827,240.31,455.72" style="stroke:#000000;stroke-width:1.0;"/></g><!--link student to deletePost--><g id="link_student_deletePost"><path d="M64.75,599.82 C71.12,696.39 92.52,942.09 148,998.64 C170.85,1021.93 198.3379,1031.7283 229.9879,1036.1583 " fill="none" id="student-to-deletePost" style="stroke:#000000;stroke-width:1.0;"/><polygon fill="#000000" points="235.93,1036.99,227.5714,1031.7811,230.9783,1036.2969,226.4624,1039.7038,235.93,1036.99" style="stroke:#000000;stroke-width:1.0;"/></g><!--link student to createComment--><g id="link_student_createComment"><path d="M64.42,600.13 C69.33,656.36 86.7,759.05 148,816.64 C164.42,832.07 179.6193,840.6787 201.2493,847.7787 " fill="none" id="student-to-createComment" style="stroke:#000000;stroke-width:1.0;"/><polygon fill="#000000" points="206.95,849.65,199.6464,843.0426,202.1994,848.0906,197.1514,850.6436,206.95,849.65" style="stroke:#000000;stroke-width:1.0;"/></g><!--link student to vote--><g id="link_student_vote"><path d="M90.8,564.85 C125.35,569.99 179.5053,578.047 230.1153,585.577 " fill="none" id="student-to-vote" style="stroke:#000000;stroke-width:1.0;"/><polygon fill="#000000" points="236.05,586.46,227.7367,581.1791,231.1044,585.7242,226.5593,589.092,236.05,586.46" style="stroke:#000000;stroke-width:1.0;"/></g><!--link student to rateComment--><g id="link_student_rateComment"><path d="M73.62,600.09 C85.93,636.63 109.32,689.83 148,720.64 C165.65,734.7 181.3808,742.8046 203.1608,749.8446 " fill="none" id="student-to-rateComment" style="stroke:#000000;stroke-width:1.0;"/><polygon fill="#000000" points="208.87,751.69,201.5365,745.1158,204.1124,750.1522,199.076,752.728,208.87,751.69" style="stroke:#000000;stroke-width:1.0;"/></g><!--link student to ratePost--><g id="link_student_ratePost"><path d="M66.99,599.95 C77.13,681.85 104.37,866.81 148,910.64 C164.83,927.55 181.3436,936.6178 204.3736,943.3878 " fill="none" id="student-to-ratePost" style="stroke:#000000;stroke-width:1.0;"/><polygon fill="#000000" points="210.13,945.08,202.6235,938.7041,205.333,943.6698,200.3672,946.3793,210.13,945.08" style="stroke:#000000;stroke-width:1.0;"/></g><!--link student to reportPost--><g id="link_student_reportPost"><path d="M90.62,594.31 C105.98,610.62 126.27,629.12 148,640.64 C175.36,655.15 201.9363,663.2345 231.5163,669.1445 " fill="none" id="student-to-reportPost" style="stroke:#000000;stroke-width:1.0;"/><polygon fill="#000000" points="237.4,670.32,229.3581,664.6342,232.4969,669.3404,227.7907,672.4792,237.4,670.32" style="stroke:#000000;stroke-width:1.0;"/></g><!--link admin to createPoll--><g id="link_admin_createPoll"><path d="M74.55,1303.17 C87.36,1267.5 110.94,1215.93 148,1184.64 C167.18,1168.45 185.2944,1158.6192 209.1044,1149.9192 " fill="none" id="admin-to-createPoll" style="stroke:#000000;stroke-width:1.0;"/><polygon fill="#000000" points="214.74,1147.86,204.9138,1147.1917,210.0437,1149.576,207.6594,1154.7058,214.74,1147.86" style="stroke:#000000;stroke-width:1.0;"/></g><!--link guest to readUniversities--><g id="link_guest_readUniversities"><path d="M342.89,1443.72 C381.94,1441.52 478.3295,1436.078 566.0595,1431.128 " fill="none" id="guest-to-readUniversities" style="stroke:#000000;stroke-width:1.0;"/><polygon fill="#000000" points="572.05,1430.79,562.839,1427.3034,567.0579,1431.0717,563.2896,1435.2906,572.05,1430.79" style="stroke:#000000;stroke-width:1.0;"/></g><!--link applicant to compareEntities--><g id="link_applicant_compareEntities"><path d="M68.01,1495.14 C76.6,1540.66 97.78,1614.04 148,1651.64 C288.46,1756.81 499.2676,1751.9107 620.5176,1738.2707 " fill="none" id="applicant-to-compareEntities" style="stroke:#000000;stroke-width:1.0;"/><polygon fill="#000000" points="626.48,1737.6,617.0893,1734.6312,621.5113,1738.1589,617.9836,1742.581,626.48,1737.6" style="stroke:#000000;stroke-width:1.0;"/></g><!--link applicant to getUniversityRecommendations--><g id="link_applicant_getUniversityRecommendations"><path d="M83.46,1495.06 C98.23,1518.72 120.29,1547.16 148,1562.64 C280.6,1636.74 451.3625,1647.5039 572.3825,1643.9939 " fill="none" id="applicant-to-getUniversityRecommendations" style="stroke:#000000;stroke-width:1.0;"/><polygon fill="#000000" points="578.38,1643.82,569.2678,1640.0826,573.3821,1643.965,569.4997,1648.0792,578.38,1643.82" style="stroke:#000000;stroke-width:1.0;"/></g><!--link admin to moderateUniveristyInfo--><g id="link_admin_moderateUniveristyInfo"><path d="M100.45,1381.87 C104.68,1387.27 108.65,1392.93 112,1398.64 C136.52,1440.48 109.11,1472.68 148,1501.64 C278.85,1599.09 471.5344,1582.8059 596.0244,1558.1459 " fill="none" id="admin-to-moderateUniveristyInfo" style="stroke:#000000;stroke-width:1.0;"/><polygon fill="#000000" points="601.91,1556.98,592.3043,1554.8051,597.0053,1557.9516,593.8588,1562.6526,601.91,1556.98" style="stroke:#000000;stroke-width:1.0;"/></g><!--SRC=[dLRBRjD05DtxAuRkA_uW6yI27Qh41rZnDBNan94zBQe0AIceOb6rg4LXGGLqnJODQN7pwY_C_17dZXDxnXv7g96YI3Ftddldt7DcyamSy2vd_SWFUvuNyNt1HCoIi7CWM10cl2t261j-MyG9sv5NQgI6waITxJ0_PPr3defYxmRh7-LKticbEj7xgJWCUA-C-29laOyeDS3lroBEx_UZiErRaLEvK2D4vFK6SgnEv4eDylYWIzqMQMntztrhtSswfhdaqJ7yNYVYGBu4wbJ-GQSpcUsmTnx3vp3bRJ-bxTyoGo4gbZ7qELGZ9YTs2Xf8k1_iyQEGlqsz2i0tEPPpW7nUWpYosqWNFC-lfly2VLD0KFnaqyTGWpnOM1g91w5murpAJEFCzNcsOGGyuatTV0V20_fUWWf2USwGcic_WBKtQgX9umb_Oen3f8unrFkyEz1ynkHIZXqul1yd3MUybYkI6yHKSkMWkni7l6mdzJvudjO59DAo9bbAfsNFoDmmA3UNBHPDORPCAimCOrdhMIzMUxKIJ2eg9OmjPklzEdSH2M2bJkM2-8B6xedigPoh2wODLXWNuPEwBNuWu1RH8papoNwaMQvDd3FsEYR3rJNz1uAPEZLjOX2vBeHcDPlP-GnS-V-lOnClQJXFpU8p276HqqUofZlZaMHOm25XOPd_HTpjqituv3uh9Oj-6u2tcyuwj9QIwzYutp4-tC7gl5J02icPrW-MWBQ4eBReoj1955KBN05jhbin_UogCT98Hx7WvEQwRtNxLTVM5Wszr24sH9exkc3Lmwx0nDM3mMnfU9CDqxOtsgSJUlusVEBijUVJxLRh4IFxVwAnGIzZTOhCSvBdGAxmm16NO9NkqA5EkgEauerxqmkFU9A68kIfIr83dOsPhoVl1Yn77tVxVi9VzeGRaJo3x-twkSyQy1WC0TNE49Ql41qNXSCwN1Hz7-_njfvFuDCVcLh9slyCyufwAdERIppl8ap5yQlUVbn_TonsxGkzofIzk_M4zSUaqiS_]--></g></svg>