<?xml version="1.0" encoding="us-ascii" standalone="no"?><svg xmlns="http://www.w3.org/2000/svg" xmlns:xlink="http://www.w3.org/1999/xlink" contentStyleType="text/css" height="1915px" preserveAspectRatio="none" style="width:743px;height:1915px;background:#FFFFFF;" version="1.1" viewBox="0 0 743 1915" width="743px" zoomAndPan="magnify"><defs/><g><!--cluster ??????? ???????????????? ???????? ? ?????????? ?????????--><g id="cluster_&#1057;&#1080;&#1089;&#1090;&#1077;&#1084;&#1072; &#1091;&#1085;&#1110;&#1074;&#1077;&#1088;&#1089;&#1080;&#1090;&#1077;&#1090;&#1089;&#1100;&#1082;&#1080;&#1093; &#1074;&#1110;&#1076;&#1075;&#1091;&#1082;&#1110;&#1074; &#1110; &#1089;&#1086;&#1094;&#1110;&#1072;&#1083;&#1100;&#1085;&#1086;&#1111; &#1074;&#1079;&#1072;&#1108;&#1084;&#1086;&#1076;&#1110;&#1111;"><rect fill="#FFFFFF" height="1897" rx="2.5" ry="2.5" style="stroke:#000000;stroke-width:1.0;" width="472" x="265" y="12"/><text fill="#000000" font-family="Verdana" font-size="14" font-weight="bold" lengthAdjust="spacing" textLength="456" x="273" y="28.0752">&#1057;&#1080;&#1089;&#1090;&#1077;&#1084;&#1072; &#1091;&#1085;&#1110;&#1074;&#1077;&#1088;&#1089;&#1080;&#1090;&#1077;&#1090;&#1089;&#1100;&#1082;&#1080;&#1093; &#1074;&#1110;&#1076;&#1075;&#1091;&#1082;&#1110;&#1074; &#1110; &#1089;&#1086;&#1094;&#1110;&#1072;&#1083;&#1100;&#1085;&#1086;&#1111; &#1074;&#1079;&#1072;&#1108;&#1084;&#1086;&#1076;&#1110;&#1111;</text></g><!--cluster ???????--><g id="cluster_&#1042;&#1110;&#1076;&#1075;&#1091;&#1082;&#1080;"><path d="M359,56 L419,56 A3.75,3.75 0 0 1 421.5,58.5 L428.5,79.0146 L643,79.0146 A2.5,2.5 0 0 1 645.5,81.5146 L645.5,627.5 A2.5,2.5 0 0 1 643,630 L359,630 A2.5,2.5 0 0 1 356.5,627.5 L356.5,58.5 A2.5,2.5 0 0 1 359,56 " fill="#FFFFFF" style="stroke:#000000;stroke-width:1.0;"/><line style="stroke:#000000;stroke-width:1.0;" x1="356.5" x2="428.5" y1="79.0146" y2="79.0146"/><text fill="#000000" font-family="Verdana" font-size="14" font-weight="bold" lengthAdjust="spacing" textLength="59" x="360.5" y="72.0752">&#1042;&#1110;&#1076;&#1075;&#1091;&#1082;&#1080;</text></g><!--cluster ???? ????????? ??? ?????????--><g id="cluster_&#1052;&#1110;&#1085;&#1110; &#1089;&#1086;&#1094;&#1084;&#1077;&#1088;&#1077;&#1078;&#1072; &#1076;&#1083;&#1103; &#1089;&#1090;&#1091;&#1076;&#1077;&#1085;&#1090;&#1110;&#1074;"><path d="M333,654 L578,654 A3.75,3.75 0 0 1 580.5,656.5 L587.5,677.0146 L669,677.0146 A2.5,2.5 0 0 1 671.5,679.5146 L671.5,1445.5 A2.5,2.5 0 0 1 669,1448 L333,1448 A2.5,2.5 0 0 1 330.5,1445.5 L330.5,656.5 A2.5,2.5 0 0 1 333,654 " fill="#FFFFFF" style="stroke:#000000;stroke-width:1.0;"/><line style="stroke:#000000;stroke-width:1.0;" x1="330.5" x2="587.5" y1="677.0146" y2="677.0146"/><text fill="#000000" font-family="Verdana" font-size="14" font-weight="bold" lengthAdjust="spacing" textLength="244" x="334.5" y="670.0752">&#1052;&#1110;&#1085;&#1110; &#1089;&#1086;&#1094;&#1084;&#1077;&#1088;&#1077;&#1078;&#1072; &#1076;&#1083;&#1103; &#1089;&#1090;&#1091;&#1076;&#1077;&#1085;&#1090;&#1110;&#1074;</text></g><!--cluster ?????? ??? ????????????--><g id="cluster_&#1057;&#1077;&#1088;&#1074;&#1110;&#1089; &#1076;&#1083;&#1103; &#1072;&#1073;&#1110;&#1090;&#1091;&#1088;&#1110;&#1108;&#1085;&#1090;&#1110;&#1074;"><path d="M309.5,1472 L496.5,1472 A3.75,3.75 0 0 1 499,1474.5 L506,1495.0146 L692.5,1495.0146 A2.5,2.5 0 0 1 695,1497.5146 L695,1882.5 A2.5,2.5 0 0 1 692.5,1885 L309.5,1885 A2.5,2.5 0 0 1 307,1882.5 L307,1474.5 A2.5,2.5 0 0 1 309.5,1472 " fill="#FFFFFF" style="stroke:#000000;stroke-width:1.0;"/><line style="stroke:#000000;stroke-width:1.0;" x1="307" x2="506" y1="1495.0146" y2="1495.0146"/><text fill="#000000" font-family="Verdana" font-size="14" font-weight="bold" lengthAdjust="spacing" textLength="186" x="311" y="1488.0752">&#1057;&#1077;&#1088;&#1074;&#1110;&#1089; &#1076;&#1083;&#1103; &#1072;&#1073;&#1110;&#1090;&#1091;&#1088;&#1110;&#1108;&#1085;&#1090;&#1110;&#1074;</text></g><g id="elem_readReviews"><ellipse cx="501.1962" cy="518.1392" fill="#FFFFFF" rx="86.1962" ry="19.6392" style="stroke:#000000;stroke-width:1.0;"/><text fill="#000000" font-family="Verdana" font-size="14" lengthAdjust="spacing" textLength="131" x="435.6962" y="521.7071">&#1063;&#1080;&#1090;&#1072;&#1090;&#1080; &#1091;&#1089;&#1110; &#1074;&#1110;&#1076;&#1075;&#1091;&#1082;&#1080;</text></g><g id="elem_createReview"><ellipse cx="500.9838" cy="111.7968" fill="#FFFFFF" rx="84.4838" ry="19.2968" style="stroke:#000000;stroke-width:1.0;"/><text fill="#000000" font-family="Verdana" font-size="14" lengthAdjust="spacing" textLength="127" x="437.4838" y="115.3646">&#1047;&#1072;&#1083;&#1080;&#1096;&#1072;&#1090;&#1080; &#1074;&#1110;&#1076;&#1075;&#1091;&#1082;&#1080;</text></g><g id="elem_editReview"><ellipse cx="500.893" cy="188.7786" fill="#FFFFFF" rx="99.393" ry="22.2786" style="stroke:#000000;stroke-width:1.0;"/><text fill="#000000" font-family="Verdana" font-size="14" lengthAdjust="spacing" textLength="161" x="420.393" y="192.3465">&#1056;&#1077;&#1076;&#1072;&#1075;&#1091;&#1074;&#1072;&#1090;&#1080; &#1089;&#1074;&#1110;&#1081; &#1074;&#1110;&#1076;&#1075;&#1091;&#1082;</text></g><g id="elem_deleteReview"><ellipse cx="500.9327" cy="267.8865" fill="#FFFFFF" rx="94.9327" ry="21.3865" style="stroke:#000000;stroke-width:1.0;"/><text fill="#000000" font-family="Verdana" font-size="14" lengthAdjust="spacing" textLength="151" x="425.4327" y="271.4544">&#1042;&#1080;&#1076;&#1072;&#1083;&#1080;&#1090;&#1080; &#1089;&#1074;&#1110;&#1081; &#1074;&#1110;&#1076;&#1075;&#1091;&#1082;</text></g><g id="elem_rateReview"><ellipse cx="500.9327" cy="435.0865" fill="#FFFFFF" rx="128.4327" ry="28.0865" style="stroke:#000000;stroke-width:1.0;"/><text fill="#000000" font-family="Verdana" font-size="14" lengthAdjust="spacing" textLength="224" x="388.9327" y="438.6544">&#1051;&#1072;&#1081;&#1082;&#1085;&#1091;&#1090;&#1080; / &#1076;&#1080;&#1079;&#1083;&#1072;&#1081;&#1082;&#1085;&#1091;&#1090;&#1080; &#1074;&#1110;&#1076;&#1075;&#1091;&#1082;</text></g><g id="elem_reportReview"><ellipse cx="500.7661" cy="347.9532" fill="#FFFFFF" rx="105.2661" ry="23.4532" style="stroke:#000000;stroke-width:1.0;"/><text fill="#000000" font-family="Verdana" font-size="14" lengthAdjust="spacing" textLength="174" x="413.7661" y="351.5211">&#1055;&#1086;&#1089;&#1082;&#1072;&#1088;&#1078;&#1080;&#1090;&#1080;&#1089;&#1100; &#1085;&#1072; &#1074;&#1110;&#1076;&#1075;&#1091;&#1082;</text></g><g id="elem_moderateReviews"><ellipse cx="500.906" cy="593.1812" fill="#FFFFFF" rx="91.406" ry="20.6812" style="stroke:#000000;stroke-width:1.0;"/><text fill="#000000" font-family="Verdana" font-size="14" lengthAdjust="spacing" textLength="143" x="429.406" y="596.7491">&#1052;&#1086;&#1076;&#1077;&#1088;&#1091;&#1074;&#1072;&#1090;&#1080; &#1074;&#1110;&#1076;&#1075;&#1091;&#1082;&#1080;</text></g><g id="elem_createPost"><ellipse cx="501.094" cy="1230.9188" fill="#FFFFFF" rx="90.094" ry="20.4188" style="stroke:#000000;stroke-width:1.0;"/><text fill="#000000" font-family="Verdana" font-size="14" lengthAdjust="spacing" textLength="140" x="431.094" y="1234.4867">&#1054;&#1087;&#1088;&#1080;&#1083;&#1102;&#1076;&#1085;&#1080;&#1090;&#1080; &#1087;&#1086;&#1089;&#1090;</text></g><g id="elem_editPost"><ellipse cx="500.9327" cy="1307.8865" fill="#FFFFFF" rx="94.9327" ry="21.3865" style="stroke:#000000;stroke-width:1.0;"/><text fill="#000000" font-family="Verdana" font-size="14" lengthAdjust="spacing" textLength="151" x="425.4327" y="1311.4544">&#1056;&#1077;&#1076;&#1072;&#1075;&#1091;&#1074;&#1072;&#1090;&#1080; &#1089;&#1074;&#1110;&#1081; &#1087;&#1086;&#1089;&#1090;</text></g><g id="elem_deletePost"><ellipse cx="501.0306" cy="711.0061" fill="#FFFFFF" rx="90.5306" ry="20.5061" style="stroke:#000000;stroke-width:1.0;"/><text fill="#000000" font-family="Verdana" font-size="14" lengthAdjust="spacing" textLength="141" x="430.5306" y="714.574">&#1042;&#1080;&#1076;&#1072;&#1083;&#1080;&#1090;&#1080; &#1089;&#1074;&#1110;&#1081; &#1087;&#1086;&#1089;&#1090;</text></g><g id="elem_ratePost"><ellipse cx="501.2409" cy="794.1482" fill="#FFFFFF" rx="123.7409" ry="27.1482" style="stroke:#000000;stroke-width:1.0;"/><text fill="#000000" font-family="Verdana" font-size="14" lengthAdjust="spacing" textLength="214" x="394.2409" y="797.7161">&#1051;&#1072;&#1081;&#1082;&#1085;&#1091;&#1090;&#1080; / &#1076;&#1080;&#1079;&#1083;&#1072;&#1081;&#1082;&#1085;&#1091;&#1090;&#1080; &#1087;&#1086;&#1089;&#1090;</text></g><g id="elem_createComment"><ellipse cx="501.066" cy="885.8132" fill="#FFFFFF" rx="134.566" ry="29.3132" style="stroke:#000000;stroke-width:1.0;"/><text fill="#000000" font-family="Verdana" font-size="14" lengthAdjust="spacing" textLength="237" x="382.566" y="889.3811">&#1047;&#1072;&#1083;&#1080;&#1096;&#1072;&#1090;&#1080; &#1082;&#1086;&#1084;&#1077;&#1085;&#1090;&#1072;&#1088;&#1110; &#1087;&#1110;&#1076; &#1087;&#1086;&#1089;&#1090;&#1072;&#1084;&#1080;</text></g><g id="elem_rateComment"><ellipse cx="500.7575" cy="980.9515" fill="#FFFFFF" rx="140.2575" ry="30.4515" style="stroke:#000000;stroke-width:1.0;"/><text fill="#000000" font-family="Verdana" font-size="14" lengthAdjust="spacing" textLength="249" x="376.2575" y="984.5194">&#1051;&#1072;&#1081;&#1082;&#1085;&#1091;&#1090;&#1080; / &#1076;&#1080;&#1079;&#1083;&#1072;&#1081;&#1082;&#1085;&#1091;&#1090;&#1080; &#1082;&#1086;&#1084;&#1077;&#1085;&#1090;&#1072;&#1088;</text></g><g id="elem_reportPost"><ellipse cx="501.2413" cy="1069.0483" fill="#FFFFFF" rx="100.7413" ry="22.5483" style="stroke:#000000;stroke-width:1.0;"/><text fill="#000000" font-family="Verdana" font-size="14" lengthAdjust="spacing" textLength="164" x="419.2413" y="1072.6161">&#1055;&#1086;&#1089;&#1082;&#1072;&#1088;&#1078;&#1080;&#1090;&#1080;&#1089;&#1100; &#1085;&#1072; &#1087;&#1086;&#1089;&#1090;</text></g><g id="elem_createPoll"><ellipse cx="501.0903" cy="1397.8181" fill="#FFFFFF" rx="154.5903" ry="33.3181" style="stroke:#000000;stroke-width:1.0;"/><text fill="#000000" font-family="Verdana" font-size="14" lengthAdjust="spacing" textLength="279" x="361.5903" y="1401.3859">&#1057;&#1090;&#1074;&#1086;&#1088;&#1102;&#1074;&#1072;&#1090;&#1080; &#1086;&#1087;&#1080;&#1090;&#1091;&#1074;&#1072;&#1085;&#1085;&#1103; &#1076;&#1083;&#1103; &#1089;&#1090;&#1091;&#1076;&#1077;&#1085;&#1090;&#1110;&#1074;</text></g><g id="elem_vote"><ellipse cx="501.0017" cy="1151.0003" fill="#FFFFFF" rx="108.0017" ry="24.0003" style="stroke:#000000;stroke-width:1.0;"/><text fill="#000000" font-family="Verdana" font-size="14" lengthAdjust="spacing" textLength="180" x="411.0017" y="1154.5682">&#1043;&#1086;&#1083;&#1086;&#1089;&#1091;&#1074;&#1072;&#1090;&#1080; &#1074; &#1086;&#1087;&#1080;&#1090;&#1091;&#1074;&#1072;&#1085;&#1085;&#1110;</text></g><g id="elem_readUniversities"><ellipse cx="500.7979" cy="1540.8596" fill="#FFFFFF" rx="149.7979" ry="32.3596" style="stroke:#000000;stroke-width:1.0;"/><text fill="#000000" font-family="Verdana" font-size="14" lengthAdjust="spacing" textLength="269" x="366.2979" y="1544.4274">&#1063;&#1080;&#1090;&#1072;&#1090;&#1080; &#1110;&#1085;&#1092;&#1086;&#1088;&#1084;&#1072;&#1094;&#1110;&#1102; &#1087;&#1088;&#1086; &#1091;&#1085;&#1110;&#1074;&#1077;&#1088;&#1089;&#1080;&#1090;&#1077;&#1090;&#1080;</text></g><g id="elem_compareEntities"><ellipse cx="501.0918" cy="1744.9184" fill="#FFFFFF" rx="112.5918" ry="24.9184" style="stroke:#000000;stroke-width:1.0;"/><text fill="#000000" font-family="Verdana" font-size="14" lengthAdjust="spacing" textLength="190" x="406.0918" y="1748.4862">&#1055;&#1086;&#1088;&#1110;&#1074;&#1085;&#1102;&#1074;&#1072;&#1090;&#1080; &#1091;&#1085;&#1110;&#1074;&#1077;&#1088;&#1089;&#1080;&#1090;&#1077;&#1090;&#1080;</text></g><g id="elem_getUniversityRecommendations"><ellipse cx="500.9742" cy="1837.0948" fill="#FFFFFF" rx="145.9742" ry="31.5948" style="stroke:#000000;stroke-width:1.0;"/><text fill="#000000" font-family="Verdana" font-size="14" lengthAdjust="spacing" textLength="261" x="370.4742" y="1840.6627">&#1055;&#1110;&#1076;&#1110;&#1073;&#1088;&#1072;&#1090;&#1080; &#1091;&#1085;&#1110;&#1074;&#1077;&#1088;&#1089;&#1080;&#1090;&#1077;&#1090; &#1079;&#1072; &#1082;&#1088;&#1080;&#1090;&#1077;&#1088;&#1110;&#1103;&#1084;&#1080;</text></g><g id="elem_moderateUniversityInfo"><ellipse cx="500.7559" cy="1646.9512" fill="#FFFFFF" rx="177.7559" ry="37.9512" style="stroke:#000000;stroke-width:1.0;"/><text fill="#000000" font-family="Verdana" font-size="14" lengthAdjust="spacing" textLength="327" x="337.2559" y="1650.519">&#1040;&#1076;&#1084;&#1110;&#1085;&#1110;&#1089;&#1090;&#1088;&#1091;&#1074;&#1072;&#1090;&#1080; &#1110;&#1085;&#1092;&#1086;&#1088;&#1084;&#1072;&#1094;&#1110;&#1102; &#1087;&#1088;&#1086; &#1091;&#1085;&#1110;&#1074;&#1077;&#1088;&#1089;&#1080;&#1090;&#1077;&#1090;&#1080;</text></g><!--entity guest--><g id="elem_guest"><ellipse cx="194.5" cy="1279" fill="#FFFFFF" rx="8" ry="8" style="stroke:#000000;stroke-width:1.0;"/><path d="M194.5,1287 L194.5,1314 M181.5,1295 L207.5,1295 M194.5,1314 L181.5,1329 M194.5,1314 L207.5,1329 " fill="none" style="stroke:#000000;stroke-width:1.0;"/><text fill="#000000" font-family="Verdana" font-size="14" lengthAdjust="spacing" textLength="34" x="177.5" y="1345.0752">&#1043;&#1110;&#1089;&#1090;&#1100;</text></g><!--entity student--><g id="elem_student"><ellipse cx="47.5" cy="797" fill="#FFFFFF" rx="8" ry="8" style="stroke:#000000;stroke-width:1.0;"/><path d="M47.5,805 L47.5,832 M34.5,813 L60.5,813 M47.5,832 L34.5,847 M47.5,832 L60.5,847 " fill="none" style="stroke:#000000;stroke-width:1.0;"/><text fill="#000000" font-family="Verdana" font-size="14" lengthAdjust="spacing" textLength="58" x="18.5" y="863.0752">&#1057;&#1090;&#1091;&#1076;&#1077;&#1085;&#1090;</text></g><!--entity applicant--><g id="elem_applicant"><ellipse cx="47.5" cy="1279" fill="#FFFFFF" rx="8" ry="8" style="stroke:#000000;stroke-width:1.0;"/><path d="M47.5,1287 L47.5,1314 M34.5,1295 L60.5,1295 M47.5,1314 L34.5,1329 M47.5,1314 L60.5,1329 " fill="none" style="stroke:#000000;stroke-width:1.0;"/><text fill="#000000" font-family="Verdana" font-size="14" lengthAdjust="spacing" textLength="73" x="11" y="1345.0752">&#1040;&#1073;&#1110;&#1090;&#1091;&#1088;&#1110;&#1108;&#1085;&#1090;</text></g><!--entity admin--><g id="elem_admin"><ellipse cx="194.5" cy="1392" fill="#FFFFFF" rx="8" ry="8" style="stroke:#000000;stroke-width:1.0;"/><path d="M194.5,1400 L194.5,1427 M181.5,1408 L207.5,1408 M194.5,1427 L181.5,1442 M194.5,1427 L207.5,1442 " fill="none" style="stroke:#000000;stroke-width:1.0;"/><text fill="#000000" font-family="Verdana" font-size="14" lengthAdjust="spacing" textLength="101" x="144" y="1458.0752">&#1040;&#1076;&#1084;&#1110;&#1085;&#1110;&#1089;&#1090;&#1088;&#1072;&#1090;&#1086;&#1088;</text></g><!--link applicant to guest--><g id="link_applicant_guest"><path d="M84.34,1309 C114.03,1309 136.85,1309 159.21,1309 " fill="none" id="applicant-to-guest" style="stroke:#000000;stroke-width:1.0;"/><polygon fill="none" points="177.21,1309,159.21,1303,159.21,1315,177.21,1309" style="stroke:#000000;stroke-width:1.0;"/></g><!--link student to guest--><g id="link_student_guest"><path d="M52,866.02 C59.96,941.82 83.63,1112.94 144,1243 C152.44,1261.19 154.652,1265.6343 165.612,1278.2443 " fill="none" id="student-to-guest" style="stroke:#000000;stroke-width:1.0;"/><polygon fill="none" points="177.42,1291.83,170.1405,1274.3083,161.0834,1282.1803,177.42,1291.83" style="stroke:#000000;stroke-width:1.0;"/></g><!--link guest to readReviews--><g id="link_guest_readReviews"><path d="M198.04,1269.77 C208.03,1116.81 244.67,568.22 257,555 C299.78,509.12 367.5737,503.3245 422.6337,507.0545 " fill="none" id="guest-to-readReviews" style="stroke:#000000;stroke-width:1.0;"/><polygon fill="#000000" points="428.62,507.46,419.9109,502.8608,423.6314,507.1221,419.3702,510.8425,428.62,507.46" style="stroke:#000000;stroke-width:1.0;"/></g><!--link student to createReview--><g id="link_student_createReview"><path d="M50.83,787.63 C58.4,669.99 85.27,323.4 144,229 C200.19,138.68 323.8285,116.3292 410.1685,111.7292 " fill="none" id="student-to-createReview" style="stroke:#000000;stroke-width:1.0;"/><polygon fill="#000000" points="416.16,111.41,406.9599,107.8945,411.1671,111.676,407.3856,115.8832,416.16,111.41" style="stroke:#000000;stroke-width:1.0;"/></g><!--link student to editReview--><g id="link_student_editReview"><path d="M51.19,787.64 C59.33,678.06 86.76,372.28 144,292 C201.24,211.72 311.5367,190.9236 395.6567,186.9436 " fill="none" id="student-to-editReview" style="stroke:#000000;stroke-width:1.0;"/><polygon fill="#000000" points="401.65,186.66,392.471,183.0898,396.6556,186.8963,392.8491,191.0809,401.65,186.66" style="stroke:#000000;stroke-width:1.0;"/></g><!--link student to deleteReview--><g id="link_student_deleteReview"><path d="M51.47,787.75 C59.94,685.73 87.31,415.49 144,349 C208.67,273.16 322.2205,259.8523 404.8205,260.9223 " fill="none" id="student-to-deleteReview" style="stroke:#000000;stroke-width:1.0;"/><polygon fill="#000000" points="410.82,261,401.8726,256.8838,405.8204,260.9352,401.7689,264.8831,410.82,261" style="stroke:#000000;stroke-width:1.0;"/></g><!--link applicant to rateReview--><g id="link_applicant_rateReview"><path d="M61.13,1269.89 C95.7,1161.4 192.8,846.96 245,579 C249.2,557.46 242,497.01 257,481 C286.87,449.12 325.4215,436.0144 368.2215,430.9544 " fill="none" id="applicant-to-rateReview" style="stroke:#000000;stroke-width:1.0;"/><polygon fill="#000000" points="374.18,430.25,364.7726,427.3343,369.2146,430.837,365.7119,435.279,374.18,430.25" style="stroke:#000000;stroke-width:1.0;"/></g><!--link student to rateReview--><g id="link_student_rateReview"><path d="M56.75,787.75 C69.13,735.47 96.32,641.85 144,575 C181.94,521.82 197.91,508.85 257,481 C295.45,462.88 334.5784,452.8566 375.3784,446.1966 " fill="none" id="student-to-rateReview" style="stroke:#000000;stroke-width:1.0;"/><polygon fill="#000000" points="381.3,445.23,371.7731,442.7322,376.3653,446.0355,373.062,450.6277,381.3,445.23" style="stroke:#000000;stroke-width:1.0;"/></g><!--link admin to moderateReviews--><g id="link_admin_moderateReviews"><path d="M235.28,1382.89 C239.2,1377.26 242.61,1371.24 245,1365 C258.75,1329.15 234.28,704.95 257,674 C292.46,625.69 351.9748,606.6796 406.0248,598.6696 " fill="none" id="admin-to-moderateReviews" style="stroke:#000000;stroke-width:1.0;"/><polygon fill="#000000" points="411.96,597.79,402.4709,595.1526,407.014,598.523,403.6436,603.0661,411.96,597.79" style="stroke:#000000;stroke-width:1.0;"/></g><!--link student to reportReview--><g id="link_student_reportReview"><path d="M51.71,787.93 C60.36,692.9 87.38,453.64 144,401 C215.16,334.84 325.2367,329.0522 405.3967,335.0522 " fill="none" id="student-to-reportReview" style="stroke:#000000;stroke-width:1.0;"/><polygon fill="#000000" points="411.38,335.5,402.7037,330.8394,406.3939,335.1268,402.1065,338.8171,411.38,335.5" style="stroke:#000000;stroke-width:1.0;"/></g><!--link applicant to reportReview--><g id="link_applicant_reportReview"><path d="M53.42,1269.88 C65.3,1178.59 98,944.66 144,753 C153.88,711.82 225.12,416.88 257,389 C295.41,355.42 344.7672,344.5148 392.9472,342.1448 " fill="none" id="applicant-to-reportReview" style="stroke:#000000;stroke-width:1.0;"/><polygon fill="#000000" points="398.94,341.85,389.7543,338.297,393.946,342.0957,390.1474,346.2873,398.94,341.85" style="stroke:#000000;stroke-width:1.0;"/></g><!--link student to createPost--><g id="link_student_createPost"><path d="M53.7,866.05 C63.12,924.49 87.51,1035.98 144,1112 C205.7,1195.04 321.8047,1220.3062 405.6447,1227.9362 " fill="none" id="student-to-createPost" style="stroke:#000000;stroke-width:1.0;"/><polygon fill="#000000" points="411.62,1228.48,403.0196,1223.6808,406.6406,1228.0268,402.2945,1231.6478,411.62,1228.48" style="stroke:#000000;stroke-width:1.0;"/></g><!--link student to editPost--><g id="link_student_editPost"><path d="M49.18,866.19 C52.32,938.1 68.13,1092.92 144,1193 C175.41,1234.43 206.69,1216.85 245,1252 C251.81,1258.25 249.15,1264.11 257,1269 C301.23,1296.58 352.5022,1306.3569 400.3322,1309.4169 " fill="none" id="student-to-editPost" style="stroke:#000000;stroke-width:1.0;"/><polygon fill="#000000" points="406.32,1309.8,397.5937,1305.2335,401.3302,1309.4808,397.083,1313.2172,406.32,1309.8" style="stroke:#000000;stroke-width:1.0;"/></g><!--link student to deletePost--><g id="link_student_deletePost"><path d="M76.9,816.25 C95.89,809.08 121.43,799.45 144,791 C194.18,772.22 205.16,762.54 257,749 C310.09,735.13 365.1577,726.3651 412.7677,720.3251 " fill="none" id="student-to-deletePost" style="stroke:#000000;stroke-width:1.0;"/><polygon fill="#000000" points="418.72,719.57,409.2881,716.7345,413.7598,720.1993,410.295,724.6709,418.72,719.57" style="stroke:#000000;stroke-width:1.0;"/></g><!--link student to createComment--><g id="link_student_createComment"><path d="M76.74,830.69 C137.07,838.57 275.4806,856.6628 378.8206,870.1628 " fill="none" id="student-to-createComment" style="stroke:#000000;stroke-width:1.0;"/><polygon fill="#000000" points="384.77,870.94,376.364,865.8079,379.8121,870.2923,375.3277,873.7405,384.77,870.94" style="stroke:#000000;stroke-width:1.0;"/></g><!--link student to vote--><g id="link_student_vote"><path d="M59.93,866.14 C74.2,909.95 101.94,981.29 144,1031 C183.42,1077.59 200.5,1085.93 257,1109 C301.59,1127.21 347.9708,1136.7405 392.6208,1142.5905 " fill="none" id="student-to-vote" style="stroke:#000000;stroke-width:1.0;"/><polygon fill="#000000" points="398.57,1143.37,390.1659,1138.2347,393.6124,1142.7205,389.1266,1146.1669,398.57,1143.37" style="stroke:#000000;stroke-width:1.0;"/></g><!--link student to rateComment--><g id="link_student_rateComment"><path d="M76.74,844.55 C115.82,868.08 189.26,909.59 257,933 C296.93,946.8 336.1091,955.9842 376.4891,963.4142 " fill="none" id="student-to-rateComment" style="stroke:#000000;stroke-width:1.0;"/><polygon fill="#000000" points="382.39,964.5,374.2624,958.9374,377.4726,963.5952,372.8147,966.8053,382.39,964.5" style="stroke:#000000;stroke-width:1.0;"/></g><!--link student to ratePost--><g id="link_student_ratePost"><path d="M76.74,824.94 C136.78,820.55 274.066,810.5177 377.296,802.9677 " fill="none" id="student-to-ratePost" style="stroke:#000000;stroke-width:1.0;"/><polygon fill="#000000" points="383.28,802.53,374.0122,799.1971,378.2933,802.8947,374.5957,807.1758,383.28,802.53" style="stroke:#000000;stroke-width:1.0;"/></g><!--link student to reportPost--><g id="link_student_reportPost"><path d="M75.64,866.34 C111.13,914.18 178.15,992.98 257,1029 C302.21,1049.65 350.5044,1059.1586 396.2644,1064.0786 " fill="none" id="student-to-reportPost" style="stroke:#000000;stroke-width:1.0;"/><polygon fill="#000000" points="402.23,1064.72,393.7092,1059.7808,397.2587,1064.1855,392.854,1067.735,402.23,1064.72" style="stroke:#000000;stroke-width:1.0;"/></g><!--link admin to createPoll--><g id="link_admin_createPoll"><path d="M245.1,1418.09 C275.35,1415.71 309.7385,1412.9903 349.4185,1409.8703 " fill="none" id="admin-to-createPoll" style="stroke:#000000;stroke-width:1.0;"/><polygon fill="#000000" points="355.4,1409.4,346.1141,1406.1178,350.4154,1409.7919,346.7412,1414.0932,355.4,1409.4" style="stroke:#000000;stroke-width:1.0;"/></g><!--link guest to readUniversities--><g id="link_guest_readUniversities"><path d="M211.6,1322.48 C222.87,1332.88 237.26,1348.28 245,1365 C260.66,1398.82 233.73,1418.89 257,1448 C287.32,1485.93 329.275,1506.7031 374.415,1520.0131 " fill="none" id="guest-to-readUniversities" style="stroke:#000000;stroke-width:1.0;"/><polygon fill="#000000" points="380.17,1521.71,372.6687,1515.3279,375.3741,1520.2959,370.4062,1523.0013,380.17,1521.71" style="stroke:#000000;stroke-width:1.0;"/></g><!--link applicant to compareEntities--><g id="link_applicant_compareEntities"><path d="M57.03,1348.18 C76.79,1428.89 133.75,1613.59 257,1703 C294.6,1730.28 338.0095,1741.3859 382.4295,1745.8059 " fill="none" id="applicant-to-compareEntities" style="stroke:#000000;stroke-width:1.0;"/><polygon fill="#000000" points="388.4,1746.4,379.8403,1741.5285,383.4246,1745.9049,379.0482,1749.4892,388.4,1746.4" style="stroke:#000000;stroke-width:1.0;"/></g><!--link applicant to getUniversityRecommendations--><g id="link_applicant_getUniversityRecommendations"><path d="M50.07,1348.14 C54.68,1421.77 72.8,1583.61 144,1696 C192.12,1771.95 282.8776,1805.8278 363.3376,1821.9978 " fill="none" id="applicant-to-getUniversityRecommendations" style="stroke:#000000;stroke-width:1.0;"/><polygon fill="#000000" points="369.22,1823.18,361.1845,1817.4851,364.318,1822.1949,359.6083,1825.3283,369.22,1823.18" style="stroke:#000000;stroke-width:1.0;"/></g><!--link admin to moderateUniversityInfo--><g id="link_admin_moderateUniversityInfo"><path d="M211.64,1461.18 C221.76,1486.36 234.79,1519.88 245,1550 C251.1,1567.98 243.19,1577.97 257,1591 C278.49,1611.28 300.0684,1622.9456 328.5584,1631.7656 " fill="none" id="admin-to-moderateUniversityInfo" style="stroke:#000000;stroke-width:1.0;"/><polygon fill="#000000" points="334.29,1633.54,326.8755,1627.0573,329.5136,1632.0613,324.5096,1634.6995,334.29,1633.54" style="stroke:#000000;stroke-width:1.0;"/></g><!--SRC=[fLRDJjj04BxdARRSKTyWbwg7tYgaFe1bBy6gOqVsagfgAoNqHpqWg025Gr5RJhs64AWXFxp2-etwpTgnr_RQwayaXB8xy-qtCz_Cv97OuttE1fxb-XsFxmec0XQwlJt173Vajd03lzEnR164R4kU9fDad1maXrlCYbXldqSYlxl4-NivbpTobHoe-qZiEzmlBBx8A_Z3AXdX_rbkPmq6dcjR9SkvN2OJMAJlZUGqEP3hP9JQEtsNI6tSsFRsssx69djJF-fG69RVypYnb34XWkLIJXa8umavapUWDCOLBl3SE3cKz_ZsaSaPhkVo6eRtPCYI2OFXElc4RrEvWE4AtyvXA7-1v1bWrt8EskTRx4sdm_0PMFPBgqUFdnHWCgPxbdts8svR4PdyL2GesXZim6HIua1ko438BMU73rt-AZ9Wd1Cpu7pES0m0DX04Jo4C23-GdpbGo6MsOJDME7SbE0N67LSqGft8M44jL61jC0xtU0kdhm2vGm0hf8M07ZDunyZwed9H0mxRGlsEyetXFON8RbEEL7-6kauDK7mGXCt1Nb3nbPYAl1cotmySNf1AI_YkAfQBLF-PtA0hmA8ijqHh3kKTCzKQUSkHFCsQ-YOVu1h3vmZ6gwmGye4YpremrSFp0EtojshGOKW93I3DEj01KWqqGFov0dJ8i3cmMgFSetxBD9qa26g-1wfUZWY7PQc5dWJzFisu_s5RUJLdtOpTBjfIz4gm3V5ZPAEW6AiGHYxNDVnZ9ImS0N05fRK8JXEFvndUE0NWGX7IMyBqp4I13GF1pGrngJfWHYjXGmYUjPNIt0UbsKhDzO5YfqL0upmvOgfFrWrRGHkzBtntoCF85IwF6gepKW0hBR6jg7RG7rWXV-gBHb3I8VwkicNO1CXe3q5JrF7gX19pdAksnqNE_lKEjvN478lMlEdLsYBMHy2_fd0p_WeYp_pT82iwogxMDZPujxJdYitUBQyl_K9RHVfnQRNelnkw-dBGFRHZzND37LRdTib1tmoL9_GhGnogEwjHr0wrqLY7s8mA_KPrKZKcas5eug0DZY81MgTNgbHgYNBuLMsNRri5MKzzHJE_0G00]--></g></svg>